<?xml version="1.0" standalone="no"?>
<!DOCTYPE svg PUBLIC "-//W3C//DTD SVG 20010904//EN"
 "http://www.w3.org/TR/2001/REC-SVG-20010904/DTD/svg10.dtd">
<svg version="1.0" xmlns="http://www.w3.org/2000/svg"
 width="900.000000pt" height="500.000000pt" viewBox="0 0 900.000000 500.000000"
 preserveAspectRatio="xMidYMid meet">

<g transform="translate(0.000000,500.000000) scale(0.100000,-0.100000)"
fill="##C53030" stroke="none">
<path d="M4859 4055 c-331 -45 -656 -181 -890 -371 l-66 -54 -86 0 c-173 0
-439 -50 -608 -114 -443 -167 -746 -479 -813 -835 -91 -481 244 -946 833
-1155 l95 -33 -2 -59 c-6 -177 -23 -531 -26 -547 -5 -19 9 -23 17 -4 3 6 97
129 210 271 l205 260 163 2 c334 6 597 69 864 207 95 49 103 52 155 45 30 -3
119 -6 196 -7 l142 -1 286 -362 c157 -200 292 -372 300 -382 12 -18 13 -12 10
50 -10 160 -34 697 -34 746 l0 53 68 24 c235 84 486 258 631 437 296 366 318
811 60 1197 -64 94 -249 273 -359 346 -223 147 -488 244 -782 286 -127 18
-436 18 -569 0z m606 -205 c535 -90 940 -390 1061 -785 26 -85 27 -315 1 -400
-65 -210 -219 -405 -432 -546 -93 -62 -269 -144 -388 -181 l-108 -33 5 -50 c3
-27 8 -117 11 -200 l6 -150 -21 26 c-11 15 -72 92 -134 171 l-115 145 -203 6
c-213 6 -332 21 -486 62 -190 51 -390 145 -528 249 -84 64 -204 188 -255 265
-259 394 -146 850 289 1161 202 144 498 249 790 280 127 13 368 4 507 -20z"/>
</g>
</svg>
